<svg width="66" height="68" viewBox="0 0 66 68" fill="none" xmlns="http://www.w3.org/2000/svg">
<path d="M2 33.625C2 16.159 16.2412 2 33.8085 2C37.0463 2 40.1712 2.48098 43.1147 3.375" stroke="white" stroke-width="4" stroke-linecap="round" stroke-linejoin="round"/>
<path fill-rule="evenodd" clip-rule="evenodd" d="M32.9629 40.4309C36.7435 44.1897 42.8731 44.1897 46.6537 40.4309C50.4343 36.6721 66.0847 10.2501 64.7018 8.87506C63.3188 7.50007 36.7435 23.0603 32.9629 26.8191C31.2771 28.4952 30.343 30.6356 30.1606 32.8263C30.5048 31.6971 31.5599 30.8751 32.8081 30.8751C34.3357 30.8751 35.5741 32.1063 35.5741 33.6251C35.5741 35.1438 34.3357 36.3751 32.8081 36.3751C31.56 36.3751 30.5049 35.5531 30.1607 34.4239C30.3431 36.6145 31.2772 38.7549 32.9629 40.4309Z" fill="white"/>
<ellipse cx="6.14877" cy="50.125" rx="2.76596" ry="2.75" fill="white"/>
<ellipse cx="17.2127" cy="61.125" rx="2.76596" ry="2.75" fill="white"/>
<ellipse cx="32.8084" cy="65.25" rx="2.76596" ry="2.75" fill="white"/>
<ellipse cx="49.4041" cy="61.125" rx="2.76596" ry="2.75" fill="white"/>
<ellipse cx="59.0853" cy="50.125" rx="2.76596" ry="2.75" fill="white"/>
<ellipse cx="63.2342" cy="33.625" rx="2.76596" ry="2.75" fill="white"/>
</svg>
